<svg width="397" height="100" viewBox="0 0 397 100" fill="none" xmlns="http://www.w3.org/2000/svg">
<path d="M157.502 68.5744C157.543 69.9545 158.695 71.04 160.075 70.999C161.455 70.9579 162.541 69.8059 162.5 68.4258L157.502 68.5744ZM162.501 49.5001L160.19 48.5449L160.19 48.5449L162.501 49.5001ZM171.001 37.0001L172.711 38.8236L172.711 38.8236L171.001 37.0001ZM187.001 28.5001L187.701 30.9001L187.001 28.5001ZM204.501 27.0001L204.837 24.5228L204.501 27.0001ZM220.001 32.5001L221.423 30.4437L220.001 32.5001ZM228.001 40.5001L229.975 38.9664L228.001 40.5001ZM234.501 52.0001L236.834 51.1033L234.501 52.0001ZM234.501 69.5001L232.524 67.9702L232.524 67.9702L234.501 69.5001ZM227.001 74.0001L227.594 76.4287L227.001 74.0001ZM220.001 74.0001L219.238 76.3807L220.001 74.0001ZM214.001 69.5001L215.992 67.9882L214.001 69.5001ZM211.501 64.0001L213.836 63.1065L213.836 63.1065L211.501 64.0001ZM202.001 51.0001L202.597 48.5722L202.001 51.0001ZM195.001 51.0001L195.715 53.396L195.001 51.0001ZM189.001 55.0001L190.902 56.6232L189.001 55.0001ZM186.001 61.5001L188.457 61.9659L186.001 61.5001ZM186.001 67.0001L183.511 67.2289L186.001 67.0001ZM187.501 74.0001L185.122 74.7701L187.501 74.0001ZM193 84L194.896 82.3709L194.896 82.3709L193 84ZM198.001 89.0001L199.572 87.0554L198.001 89.0001ZM206.501 94.0001L207.585 91.7474L206.501 94.0001ZM213.174 99.3594C214.477 99.816 215.904 99.1298 216.36 97.8267C216.817 96.5237 216.131 95.0973 214.828 94.6407L213.174 99.3594ZM160.001 68.5001C162.5 68.4258 162.5 68.426 162.5 68.4262C162.5 68.4262 162.5 68.4264 162.5 68.4264C162.5 68.4265 162.5 68.4264 162.5 68.426C162.5 68.4254 162.5 68.424 162.5 68.422C162.5 68.4178 162.499 68.4108 162.499 68.401C162.499 68.3814 162.498 68.3506 162.497 68.3091C162.495 68.2261 162.493 68.1005 162.491 67.9365C162.487 67.6084 162.484 67.1271 162.489 66.526C162.5 65.3222 162.543 63.647 162.673 61.7654C162.937 57.923 163.545 53.5167 164.811 50.4553L160.19 48.5449C158.597 52.3995 157.955 57.4933 157.684 61.4219C157.546 63.4257 157.501 65.2037 157.489 66.4818C157.484 67.1217 157.487 67.6385 157.491 67.9982C157.493 68.1781 157.496 68.3189 157.498 68.4163C157.499 68.465 157.5 68.5029 157.501 68.5294C157.501 68.5427 157.501 68.5531 157.502 68.5606C157.502 68.5644 157.502 68.5674 157.502 68.5697C157.502 68.5709 157.502 68.5718 157.502 68.5726C157.502 68.573 157.502 68.5734 157.502 68.5736C157.502 68.574 157.502 68.5744 160.001 68.5001ZM164.811 50.4553C166.947 45.289 168.694 42.5906 172.711 38.8236L169.291 35.1765C164.696 39.486 162.566 42.8003 160.19 48.5449L164.811 50.4553ZM172.711 38.8236C177.476 34.355 181.109 32.8223 187.701 30.9001L186.301 26.1C179.308 28.1395 174.848 29.965 169.291 35.1765L172.711 38.8236ZM187.701 30.9001C194.011 29.06 197.773 28.6101 204.165 29.4774L204.837 24.5228C197.635 23.5457 193.161 24.0995 186.301 26.1L187.701 30.9001ZM204.165 29.4774C210.313 30.3115 213.738 31.2094 218.579 34.5564L221.423 30.4437C215.697 26.4851 211.418 25.4156 204.837 24.5228L204.165 29.4774ZM218.579 34.5564C221.897 36.8502 223.365 38.608 226.027 42.0338L229.975 38.9664C227.215 35.4139 225.373 33.1754 221.423 30.4437L218.579 34.5564ZM226.027 42.0338C229.044 45.9175 230.406 48.3141 232.167 52.8968L236.834 51.1033C234.895 46.0551 233.288 43.2304 229.975 38.9664L226.027 42.0338ZM232.167 52.8968C233.569 56.5453 234.501 59.5374 234.501 61.5001H239.501C239.501 58.4626 238.185 54.6168 236.834 51.1033L232.167 52.8968ZM234.501 61.5001C234.501 63.0209 234.383 64.1055 234.105 65.048C233.833 65.9654 233.372 66.8738 232.524 67.9702L236.478 71.0299C237.633 69.5376 238.421 68.0826 238.899 66.4655C239.37 64.8735 239.501 63.2525 239.501 61.5001H234.501ZM232.524 67.9702C231.649 69.1011 230.843 69.7896 229.97 70.2894C229.066 70.8068 227.972 71.1894 226.408 71.5714L227.594 76.4287C229.347 76.0005 230.959 75.4839 232.453 74.6292C233.977 73.7569 235.263 72.6005 236.478 71.0299L232.524 67.9702ZM226.408 71.5714C223.99 72.1617 222.76 72.2594 220.764 71.6194L219.238 76.3807C222.448 77.4099 224.7 77.1353 227.594 76.4287L226.408 71.5714ZM220.764 71.6194C219.595 71.2448 218.811 70.8262 218.152 70.3144C217.47 69.7855 216.82 69.0792 215.992 67.9882L212.01 71.0119C212.953 72.2537 213.908 73.3502 215.086 74.2646C216.287 75.1961 217.617 75.8612 219.238 76.3807L220.764 71.6194ZM215.992 67.9882C214.852 66.4876 214.825 65.6915 213.836 63.1065L209.166 64.8936C209.863 66.7156 210.296 68.7544 212.01 71.0119L215.992 67.9882ZM213.836 63.1065C213.244 61.5594 212.923 60.1008 212.487 58.4932C212.095 57.0477 211.562 55.2689 210.421 53.8995L206.579 57.1005C206.938 57.5311 207.254 58.2989 207.661 59.8017C208.025 61.1425 208.454 63.034 209.166 64.8936L213.836 63.1065ZM210.421 53.8995C208.82 51.9785 206.447 49.5179 202.597 48.5722L201.405 53.4279C203.67 53.9843 205.18 55.4215 206.579 57.1005L210.421 53.8995ZM202.597 48.5722C199.651 47.8486 197.453 47.6611 194.287 48.6041L195.715 53.396C197.788 52.7783 199.041 52.8474 201.405 53.4279L202.597 48.5722ZM194.287 48.6041C192.762 49.0584 191.471 49.6178 190.274 50.4275C189.086 51.2309 188.095 52.2104 187.099 53.377L190.902 56.6232C191.735 55.6479 192.395 55.0293 193.075 54.5692C193.746 54.1153 194.541 53.7457 195.715 53.396L194.287 48.6041ZM187.099 53.377C184.952 55.8931 184.131 57.943 183.545 61.0342L188.457 61.9659C188.913 59.5637 189.42 58.3599 190.902 56.6232L187.099 53.377ZM183.545 61.0342C183.066 63.5595 183.324 65.192 183.511 67.2289L188.49 66.7712C188.284 64.5304 188.136 63.6611 188.457 61.9659L183.545 61.0342ZM183.511 67.2289C183.788 70.2413 184.22 71.9829 185.122 74.7701L189.879 73.23C189.059 70.6976 188.725 69.3268 188.49 66.7712L183.511 67.2289ZM185.122 74.7701C185.852 77.0248 186.528 78.8164 187.456 80.527C188.39 82.2479 189.529 83.7959 191.104 85.6291L194.896 82.3709C193.455 80.693 192.557 79.443 191.851 78.1427C191.14 76.832 190.575 75.3793 189.879 73.23L185.122 74.7701ZM191.104 85.6291C192.85 87.6623 194.106 89.0678 196.43 90.9448L199.572 87.0554C197.599 85.4613 196.573 84.3229 194.896 82.3709L191.104 85.6291ZM196.43 90.9448C199.682 93.572 201.969 94.5933 205.417 96.2527L207.585 91.7474C204.093 90.0665 202.311 89.2685 199.572 87.0554L196.43 90.9448ZM205.417 96.2527C206.938 96.9849 208.895 97.7657 210.427 98.3493C211.202 98.6447 211.886 98.8962 212.377 99.0741C212.622 99.1631 212.82 99.2338 212.957 99.2826C213.026 99.307 213.079 99.3259 213.116 99.3389C213.134 99.3453 213.148 99.3503 213.158 99.3538C213.163 99.3555 213.167 99.3568 213.169 99.3578C213.171 99.3583 213.172 99.3586 213.173 99.3589C213.173 99.3591 213.173 99.3592 213.174 99.3593C213.174 99.3593 213.174 99.3593 213.174 99.3594C213.174 99.3594 213.174 99.3594 214.001 97.0001C214.828 94.6407 214.828 94.6407 214.828 94.6407C214.828 94.6407 214.828 94.6408 214.828 94.6407C214.828 94.6407 214.827 94.6407 214.827 94.6406C214.827 94.6405 214.826 94.6403 214.825 94.64C214.824 94.6394 214.821 94.6383 214.817 94.6369C214.809 94.6341 214.796 94.6298 214.78 94.624C214.747 94.6124 214.698 94.5949 214.633 94.572C214.505 94.5261 214.316 94.4587 214.081 94.3733C213.609 94.2025 212.951 93.9605 212.207 93.6769C210.699 93.1026 208.906 92.3833 207.585 91.7474L205.417 96.2527Z" fill="#29F5B5"/>
<path d="M156 37.5C156 37.5 157.938 33.9526 159.5 32C161.062 30.0474 164 27.5 164 27.5" stroke="#053776" stroke-width="5" stroke-linecap="round" stroke-linejoin="round"/>
<path d="M168.26 8.82942C167.061 9.51445 166.644 11.0416 167.329 12.2404C168.014 13.4392 169.542 13.8557 170.74 13.1706L168.26 8.82942ZM213.356 7.41559C214.69 7.77135 216.06 6.97825 216.416 5.64416C216.771 4.31007 215.978 2.94017 214.644 2.58442L213.356 7.41559ZM170.74 13.1706C184.179 5.49124 199.003 3.5882 213.356 7.41559L214.644 2.58442C198.997 -1.5882 182.821 0.508726 168.26 8.82942L170.74 13.1706Z" fill="#1673FD"/>
<path d="M221 7.5C223.5 8.5 225.5 9.5 227.5 10.5" stroke="#1343A6" stroke-width="5" stroke-linecap="round" stroke-linejoin="round"/>
<path d="M171 22.5003C171 22.5003 179 16.9999 187.5 15.5C196 14.0002 202.171 14.0102 209 15.5001C216.035 17.0352 223.5 20.5001 229.5 25.0001C235.5 29.5001 241 37.5 241 37.5" stroke="#23C7E3" stroke-width="5" stroke-linecap="round"/>
<path d="M161 75.5C161 75.5 162.121 78.645 163 80.5C163.879 82.355 165.5 85 165.5 85" stroke="#0296B0" stroke-width="5" stroke-linecap="round" stroke-linejoin="round"/>
<path d="M224 60C224 60 224.402 60.8166 224.5 61.5C224.598 62.1834 224.5 63.5 224.5 63.5" stroke="#749BF6" stroke-width="5" stroke-linecap="round" stroke-linejoin="round"/>
<path d="M198 62C198 62 197.995 64.2037 198.5 66.5C198.898 68.3091 199.245 69.3084 200 71C200.928 73.0794 201.63 74.1808 203 76C204.827 78.4268 205.99 79.79 208.5 81.5C210.304 82.729 211.487 83.1557 213.5 84C215.778 84.9552 217.114 85.36 219.5 86C222.57 86.8237 226 87.5 226 87.5" stroke="#1BE5FE" stroke-width="5" stroke-linecap="round" stroke-linejoin="round"/>
<path d="M189 96.5C189 96.5 184.469 92.1547 182 89C179.83 86.2281 178.635 84.6171 177 81.5C175.247 78.1606 174.389 76.1648 173.5 72.5C172.574 68.6859 172.041 66.3977 172.5 62.5C172.933 58.8205 173.298 56.2909 175 53C176.919 49.2881 178.373 47.2723 181.5 44.5C185.161 41.2537 188.198 39.9407 193 39C196.065 38.3993 197.896 38.6401 201 39C204.81 39.4418 207.082 39.7563 210.5 41.5C213.596 43.0801 215.221 44.3738 217.5 47C219.453 49.2515 221.5 53.5 221.5 53.5" stroke="#1F5DCD" stroke-width="5" stroke-linecap="round" stroke-linejoin="round"/>
<path d="M23.88 46.96C23.88 48.5867 23.5067 50.08 22.76 51.44C22.0133 52.7733 20.8667 53.8533 19.32 54.68C17.7733 55.5067 15.8533 55.92 13.56 55.92H9.32V66H2.48V37.92H13.56C15.8 37.92 17.6933 38.3067 19.24 39.08C20.7867 39.8533 21.9467 40.92 22.72 42.28C23.4933 43.64 23.88 45.2 23.88 46.96ZM13.04 50.48C14.3467 50.48 15.32 50.1733 15.96 49.56C16.6 48.9467 16.92 48.08 16.92 46.96C16.92 45.84 16.6 44.9733 15.96 44.36C15.32 43.7467 14.3467 43.44 13.04 43.44H9.32V50.48H13.04ZM26.0809 54.8C26.0809 52.5067 26.5076 50.4933 27.3609 48.76C28.2409 47.0267 29.4276 45.6933 30.9209 44.76C32.4143 43.8267 34.0809 43.36 35.9209 43.36C37.4943 43.36 38.8676 43.68 40.0409 44.32C41.2409 44.96 42.1609 45.8 42.8009 46.84V43.68H49.6409V66H42.8009V62.84C42.1343 63.88 41.2009 64.72 40.0009 65.36C38.8276 66 37.4543 66.32 35.8809 66.32C34.0676 66.32 32.4143 65.8533 30.9209 64.92C29.4276 63.96 28.2409 62.6133 27.3609 60.88C26.5076 59.12 26.0809 57.0933 26.0809 54.8ZM42.8009 54.84C42.8009 53.1333 42.3209 51.7867 41.3609 50.8C40.4276 49.8133 39.2809 49.32 37.9209 49.32C36.5609 49.32 35.4009 49.8133 34.4409 50.8C33.5076 51.76 33.0409 53.0933 33.0409 54.8C33.0409 56.5067 33.5076 57.8667 34.4409 58.88C35.4009 59.8667 36.5609 60.36 37.9209 60.36C39.2809 60.36 40.4276 59.8667 41.3609 58.88C42.3209 57.8933 42.8009 56.5467 42.8009 54.84ZM63.6694 66.32C61.7227 66.32 59.9894 65.9867 58.4694 65.32C56.9494 64.6533 55.7494 63.7467 54.8694 62.6C53.9894 61.4267 53.496 60.12 53.3894 58.68H60.1494C60.2294 59.4533 60.5894 60.08 61.2294 60.56C61.8694 61.04 62.656 61.28 63.5894 61.28C64.4427 61.28 65.096 61.12 65.5494 60.8C66.0294 60.4533 66.2694 60.0133 66.2694 59.48C66.2694 58.84 65.936 58.3733 65.2694 58.08C64.6027 57.76 63.5227 57.4133 62.0294 57.04C60.4294 56.6667 59.096 56.28 58.0294 55.88C56.9627 55.4533 56.0427 54.8 55.2694 53.92C54.496 53.0133 54.1094 51.8 54.1094 50.28C54.1094 49 54.456 47.84 55.1494 46.8C55.8694 45.7333 56.9094 44.8933 58.2694 44.28C59.656 43.6667 61.296 43.36 63.1894 43.36C65.9894 43.36 68.1894 44.0533 69.7894 45.44C71.416 46.8267 72.3494 48.6667 72.5894 50.96H66.2694C66.1627 50.1867 65.816 49.5733 65.2294 49.12C64.6694 48.6667 63.9227 48.44 62.9894 48.44C62.1894 48.44 61.576 48.6 61.1494 48.92C60.7227 49.2133 60.5094 49.6267 60.5094 50.16C60.5094 50.8 60.8427 51.28 61.5094 51.6C62.2027 51.92 63.2694 52.24 64.7094 52.56C66.3627 52.9867 67.7094 53.4133 68.7494 53.84C69.7894 54.24 70.696 54.9067 71.4694 55.84C72.2694 56.7467 72.6827 57.9733 72.7094 59.52C72.7094 60.8267 72.336 62 71.5894 63.04C70.8694 64.0533 69.816 64.8533 68.4294 65.44C67.0694 66.0267 65.4827 66.32 63.6694 66.32ZM85.9741 66.32C84.0274 66.32 82.2941 65.9867 80.7741 65.32C79.2541 64.6533 78.0541 63.7467 77.1741 62.6C76.2941 61.4267 75.8007 60.12 75.6941 58.68H82.4541C82.5341 59.4533 82.8941 60.08 83.5341 60.56C84.1741 61.04 84.9607 61.28 85.8941 61.28C86.7474 61.28 87.4007 61.12 87.8541 60.8C88.3341 60.4533 88.5741 60.0133 88.5741 59.48C88.5741 58.84 88.2407 58.3733 87.5741 58.08C86.9074 57.76 85.8274 57.4133 84.3341 57.04C82.7341 56.6667 81.4007 56.28 80.3341 55.88C79.2674 55.4533 78.3474 54.8 77.5741 53.92C76.8007 53.0133 76.4141 51.8 76.4141 50.28C76.4141 49 76.7607 47.84 77.4541 46.8C78.1741 45.7333 79.2141 44.8933 80.5741 44.28C81.9607 43.6667 83.6007 43.36 85.4941 43.36C88.2941 43.36 90.4941 44.0533 92.0941 45.44C93.7207 46.8267 94.6541 48.6667 94.8941 50.96H88.5741C88.4674 50.1867 88.1207 49.5733 87.5341 49.12C86.9741 48.6667 86.2274 48.44 85.2941 48.44C84.4941 48.44 83.8807 48.6 83.4541 48.92C83.0274 49.2133 82.8141 49.6267 82.8141 50.16C82.8141 50.8 83.1474 51.28 83.8141 51.6C84.5074 51.92 85.5741 52.24 87.0141 52.56C88.6674 52.9867 90.0141 53.4133 91.0541 53.84C92.0941 54.24 93.0007 54.9067 93.7741 55.84C94.5741 56.7467 94.9874 57.9733 95.0141 59.52C95.0141 60.8267 94.6407 62 93.8941 63.04C93.1741 64.0533 92.1207 64.8533 90.7341 65.44C89.3741 66.0267 87.7874 66.32 85.9741 66.32ZM131.239 43.68L125.199 66H117.639L114.119 51.52L110.479 66H102.959L96.8788 43.68H103.719L106.879 59.64L110.639 43.68H117.879L121.679 59.56L124.799 43.68H131.239ZM144.007 66.32C141.821 66.32 139.847 65.8533 138.087 64.92C136.354 63.9867 134.981 62.6533 133.967 60.92C132.981 59.1867 132.487 57.16 132.487 54.84C132.487 52.5467 132.994 50.5333 134.007 48.8C135.021 47.04 136.407 45.6933 138.167 44.76C139.927 43.8267 141.901 43.36 144.087 43.36C146.274 43.36 148.247 43.8267 150.007 44.76C151.767 45.6933 153.154 47.04 154.167 48.8C155.181 50.5333 155.687 52.5467 155.687 54.84C155.687 57.1333 155.167 59.16 154.127 60.92C153.114 62.6533 151.714 63.9867 149.927 64.92C148.167 65.8533 146.194 66.32 144.007 66.32ZM144.007 60.4C145.314 60.4 146.421 59.92 147.327 58.96C148.261 58 148.727 56.6267 148.727 54.84C148.727 53.0533 148.274 51.68 147.367 50.72C146.487 49.76 145.394 49.28 144.087 49.28C142.754 49.28 141.647 49.76 140.767 50.72C139.887 51.6533 139.447 53.0267 139.447 54.84C139.447 56.6267 139.874 58 140.727 58.96C141.607 59.92 142.701 60.4 144.007 60.4ZM166.156 47.4C166.956 46.1733 167.956 45.2133 169.156 44.52C170.356 43.8 171.689 43.44 173.156 43.44V50.68H171.276C169.569 50.68 168.289 51.0533 167.436 51.8C166.583 52.52 166.156 53.8 166.156 55.64V66H159.316V43.68H166.156V47.4ZM175.065 54.8C175.065 52.5067 175.492 50.4933 176.345 48.76C177.225 47.0267 178.412 45.6933 179.905 44.76C181.399 43.8267 183.065 43.36 184.905 43.36C186.372 43.36 187.705 43.6667 188.905 44.28C190.132 44.8933 191.092 45.72 191.785 46.76V36.4H198.625V66H191.785V62.8C191.145 63.8667 190.225 64.72 189.025 65.36C187.852 66 186.479 66.32 184.905 66.32C183.065 66.32 181.399 65.8533 179.905 64.92C178.412 63.96 177.225 62.6133 176.345 60.88C175.492 59.12 175.065 57.0933 175.065 54.8ZM191.785 54.84C191.785 53.1333 191.305 51.7867 190.345 50.8C189.412 49.8133 188.265 49.32 186.905 49.32C185.545 49.32 184.385 49.8133 183.425 50.8C182.492 51.76 182.025 53.0933 182.025 54.8C182.025 56.5067 182.492 57.8667 183.425 58.88C184.385 59.8667 185.545 60.36 186.905 60.36C188.265 60.36 189.412 59.8667 190.345 58.88C191.305 57.8933 191.785 56.5467 191.785 54.84ZM243.85 37.92V66H237.01V49.16L230.73 66H225.21L218.89 49.12V66H212.05V37.92H220.13L228.01 57.36L235.81 37.92H243.85ZM247.409 54.8C247.409 52.5067 247.836 50.4933 248.689 48.76C249.569 47.0267 250.756 45.6933 252.249 44.76C253.742 43.8267 255.409 43.36 257.249 43.36C258.822 43.36 260.196 43.68 261.369 44.32C262.569 44.96 263.489 45.8 264.129 46.84V43.68H270.969V66H264.129V62.84C263.462 63.88 262.529 64.72 261.329 65.36C260.156 66 258.782 66.32 257.209 66.32C255.396 66.32 253.742 65.8533 252.249 64.92C250.756 63.96 249.569 62.6133 248.689 60.88C247.836 59.12 247.409 57.0933 247.409 54.8ZM264.129 54.84C264.129 53.1333 263.649 51.7867 262.689 50.8C261.756 49.8133 260.609 49.32 259.249 49.32C257.889 49.32 256.729 49.8133 255.769 50.8C254.836 51.76 254.369 53.0933 254.369 54.8C254.369 56.5067 254.836 57.8667 255.769 58.88C256.729 59.8667 257.889 60.36 259.249 60.36C260.609 60.36 261.756 59.8667 262.689 58.88C263.649 57.8933 264.129 56.5467 264.129 54.84ZM289.518 43.44C292.131 43.44 294.211 44.2933 295.758 46C297.331 47.68 298.118 50 298.118 52.96V66H291.318V53.88C291.318 52.3867 290.931 51.2267 290.158 50.4C289.384 49.5733 288.344 49.16 287.038 49.16C285.731 49.16 284.691 49.5733 283.918 50.4C283.144 51.2267 282.758 52.3867 282.758 53.88V66H275.918V43.68H282.758V46.64C283.451 45.6533 284.384 44.88 285.558 44.32C286.731 43.7333 288.051 43.44 289.518 43.44ZM301.511 54.8C301.511 52.5067 301.937 50.4933 302.791 48.76C303.671 47.0267 304.857 45.6933 306.351 44.76C307.844 43.8267 309.511 43.36 311.351 43.36C312.924 43.36 314.297 43.68 315.471 44.32C316.671 44.96 317.591 45.8 318.231 46.84V43.68H325.071V66H318.231V62.84C317.564 63.88 316.631 64.72 315.431 65.36C314.257 66 312.884 66.32 311.311 66.32C309.497 66.32 307.844 65.8533 306.351 64.92C304.857 63.96 303.671 62.6133 302.791 60.88C301.937 59.12 301.511 57.0933 301.511 54.8ZM318.231 54.84C318.231 53.1333 317.751 51.7867 316.791 50.8C315.857 49.8133 314.711 49.32 313.351 49.32C311.991 49.32 310.831 49.8133 309.871 50.8C308.937 51.76 308.471 53.0933 308.471 54.8C308.471 56.5067 308.937 57.8667 309.871 58.88C310.831 59.8667 311.991 60.36 313.351 60.36C314.711 60.36 315.857 59.8667 316.791 58.88C317.751 57.8933 318.231 56.5467 318.231 54.84ZM338.499 43.36C340.072 43.36 341.446 43.68 342.619 44.32C343.819 44.96 344.739 45.8 345.379 46.84V43.68H352.219V65.96C352.219 68.0133 351.806 69.8667 350.979 71.52C350.179 73.2 348.939 74.5333 347.259 75.52C345.606 76.5067 343.539 77 341.059 77C337.752 77 335.072 76.2133 333.019 74.64C330.966 73.0933 329.792 70.9867 329.499 68.32H336.259C336.472 69.1733 336.979 69.84 337.779 70.32C338.579 70.8267 339.566 71.08 340.739 71.08C342.152 71.08 343.272 70.6667 344.099 69.84C344.952 69.04 345.379 67.7467 345.379 65.96V62.8C344.712 63.84 343.792 64.6933 342.619 65.36C341.446 66 340.072 66.32 338.499 66.32C336.659 66.32 334.992 65.8533 333.499 64.92C332.006 63.96 330.819 62.6133 329.939 60.88C329.086 59.12 328.659 57.0933 328.659 54.8C328.659 52.5067 329.086 50.4933 329.939 48.76C330.819 47.0267 332.006 45.6933 333.499 44.76C334.992 43.8267 336.659 43.36 338.499 43.36ZM345.379 54.84C345.379 53.1333 344.899 51.7867 343.939 50.8C343.006 49.8133 341.859 49.32 340.499 49.32C339.139 49.32 337.979 49.8133 337.019 50.8C336.086 51.76 335.619 53.0933 335.619 54.8C335.619 56.5067 336.086 57.8667 337.019 58.88C337.979 59.8667 339.139 60.36 340.499 60.36C341.859 60.36 343.006 59.8667 343.939 58.88C344.899 57.8933 345.379 56.5467 345.379 54.84ZM378.207 54.48C378.207 55.12 378.168 55.7867 378.088 56.48H362.608C362.714 57.8667 363.154 58.9333 363.928 59.68C364.728 60.4 365.701 60.76 366.848 60.76C368.554 60.76 369.741 60.04 370.408 58.6H377.688C377.314 60.0667 376.634 61.3867 375.648 62.56C374.688 63.7333 373.474 64.6533 372.008 65.32C370.541 65.9867 368.901 66.32 367.088 66.32C364.901 66.32 362.954 65.8533 361.248 64.92C359.541 63.9867 358.208 62.6533 357.248 60.92C356.288 59.1867 355.808 57.16 355.808 54.84C355.808 52.52 356.274 50.4933 357.208 48.76C358.168 47.0267 359.501 45.6933 361.208 44.76C362.914 43.8267 364.874 43.36 367.088 43.36C369.248 43.36 371.168 43.8133 372.848 44.72C374.528 45.6267 375.834 46.92 376.768 48.6C377.728 50.28 378.207 52.24 378.207 54.48ZM371.208 52.68C371.208 51.5067 370.808 50.5733 370.008 49.88C369.208 49.1867 368.208 48.84 367.008 48.84C365.861 48.84 364.888 49.1733 364.088 49.84C363.314 50.5067 362.834 51.4533 362.648 52.68H371.208ZM388.656 47.4C389.456 46.1733 390.456 45.2133 391.656 44.52C392.856 43.8 394.189 43.44 395.656 43.44V50.68H393.776C392.069 50.68 390.789 51.0533 389.936 51.8C389.083 52.52 388.656 53.8 388.656 55.64V66H381.816V43.68H388.656V47.4Z" fill="black"/>
</svg>
